<svg width="174" height="44" viewBox="0 0 174 44" fill="none" xmlns="http://www.w3.org/2000/svg">
<path d="M8.14 31.264C6.43867 31.264 5.016 30.8973 3.872 30.164C2.728 29.4307 1.87 28.4333 1.298 27.172C0.726 25.896 0.44 24.4513 0.44 22.838C0.44 21.2833 0.748 19.8827 1.364 18.636C1.98 17.3893 2.86733 16.4067 4.026 15.688C5.18467 14.9547 6.56333 14.588 8.162 14.588C8.69 14.588 9.27667 14.6467 9.922 14.764C10.582 14.8667 11.22 15.0353 11.836 15.27C12.452 15.49 12.9653 15.7833 13.376 16.15L11.792 18.174C11.3813 17.7047 10.8387 17.3453 10.164 17.096C9.504 16.8467 8.87333 16.722 8.272 16.722C7.42133 16.722 6.70267 16.898 6.116 17.25C5.52933 17.5873 5.06 18.0493 4.708 18.636C4.356 19.2227 4.09933 19.8753 3.938 20.594C3.79133 21.298 3.718 22.024 3.718 22.772C3.718 24.7667 4.12867 26.3213 4.95 27.436C5.786 28.5507 6.94467 29.108 8.426 29.108C9.042 29.108 9.69467 29.0273 10.384 28.866C11.0733 28.69 11.7993 28.404 12.562 28.008L13.464 29.636C12.6133 30.1787 11.7773 30.5893 10.956 30.868C10.1493 31.132 9.21067 31.264 8.14 31.264ZM17.3145 19.846C17.6372 20.5793 17.8132 21.3493 17.8425 22.156C18.2092 21.54 18.7225 21.0047 19.3825 20.55C20.0425 20.0807 20.7392 19.846 21.4725 19.846L21.0325 22.464C20.3872 22.464 19.8078 22.6327 19.2945 22.97C18.7958 23.2927 18.3192 23.7987 17.8645 24.488V31H15.2245V23.014C15.2245 22.7353 15.2025 22.4127 15.1585 22.046C15.1145 21.6647 15.0412 21.298 14.9385 20.946C14.8358 20.594 14.6965 20.3007 14.5205 20.066L17.3145 19.846ZM27.0136 19.758C28.0256 19.758 28.8543 19.978 29.4996 20.418C30.1596 20.858 30.6436 21.43 30.9516 22.134C31.2743 22.8233 31.4356 23.564 31.4356 24.356C31.4356 24.8693 31.3696 25.368 31.2376 25.852H24.5496C24.5496 27.0253 24.8283 27.9273 25.3856 28.558C25.9429 29.174 26.6689 29.482 27.5636 29.482C27.9889 29.482 28.4436 29.4087 28.9276 29.262C29.4263 29.1153 29.9396 28.888 30.4676 28.58L31.1716 30.076C30.6729 30.472 30.0423 30.7653 29.2796 30.956C28.5316 31.1467 27.8569 31.242 27.2556 31.242C26.1116 31.242 25.1289 31.0073 24.3076 30.538C23.4863 30.0687 22.8556 29.416 22.4156 28.58C21.9756 27.7293 21.7556 26.7393 21.7556 25.61C21.7556 24.5833 21.9609 23.63 22.3716 22.75C22.7969 21.8553 23.3983 21.1367 24.1756 20.594C24.9676 20.0367 25.9136 19.758 27.0136 19.758ZM26.9036 21.562C26.4196 21.562 26.0089 21.694 25.6716 21.958C25.3489 22.222 25.0996 22.552 24.9236 22.948C24.7476 23.344 24.6449 23.7327 24.6156 24.114H28.6856C28.7589 23.6887 28.7369 23.2853 28.6196 22.904C28.5023 22.508 28.2969 22.1853 28.0036 21.936C27.7103 21.6867 27.3436 21.562 26.9036 21.562ZM37.6427 19.802C38.816 19.802 39.718 20.1027 40.3487 20.704C40.994 21.2907 41.3167 22.178 41.3167 23.366V28.184C41.3167 28.6093 41.3827 28.8953 41.5147 29.042C41.6467 29.1887 41.8154 29.262 42.0207 29.262C42.2847 29.262 42.5707 29.2033 42.8787 29.086L43.2967 30.582C42.974 30.758 42.6074 30.8973 42.1967 31C41.786 31.1173 41.412 31.176 41.0747 31.176C40.5467 31.176 40.1214 31.066 39.7987 30.846C39.476 30.626 39.2487 30.2447 39.1167 29.702C38.706 30.274 38.222 30.6773 37.6647 30.912C37.122 31.132 36.506 31.242 35.8167 31.242C34.966 31.242 34.2327 31 33.6167 30.516C33.0154 30.0173 32.7147 29.3207 32.7147 28.426C32.7147 27.634 32.898 26.9887 33.2647 26.49C33.646 25.9767 34.1374 25.588 34.7387 25.324C35.34 25.0453 35.9854 24.8547 36.6747 24.752C37.3787 24.6493 38.046 24.598 38.6767 24.598V23.168C38.6767 22.5813 38.552 22.178 38.3027 21.958C38.0534 21.738 37.65 21.628 37.0927 21.628C36.594 21.628 36.0954 21.7673 35.5967 22.046C35.098 22.3247 34.658 22.6107 34.2767 22.904L33.1987 21.166C34.5334 20.2567 36.0147 19.802 37.6427 19.802ZM38.6767 26.402C38.3687 26.402 38.0314 26.4167 37.6647 26.446C37.298 26.4753 36.946 26.5487 36.6087 26.666C36.2714 26.7833 35.9927 26.9593 35.7727 27.194C35.5674 27.4287 35.4647 27.7513 35.4647 28.162C35.4647 28.4993 35.5967 28.7633 35.8607 28.954C36.1394 29.13 36.4327 29.218 36.7407 29.218C37.1514 29.218 37.496 29.1007 37.7747 28.866C38.068 28.6313 38.288 28.338 38.4347 27.986C38.596 27.6193 38.6767 27.26 38.6767 26.908V26.402ZM47.8538 16.876C47.7511 17.3893 47.6631 17.9173 47.5898 18.46C47.5164 19.0027 47.4724 19.538 47.4578 20.066H50.1198L49.7018 21.804H47.4578V27.854C47.4578 28.0153 47.4724 28.2133 47.5018 28.448C47.5311 28.6827 47.6118 28.888 47.7438 29.064C47.8758 29.24 48.0884 29.328 48.3818 29.328C48.6311 29.328 48.8731 29.306 49.1078 29.262C49.3424 29.218 49.5771 29.1667 49.8118 29.108L50.1198 30.758C49.7384 30.8753 49.3058 30.978 48.8218 31.066C48.3524 31.1687 47.9198 31.22 47.5238 31.22C46.5851 31.22 45.8884 31 45.4338 30.56C44.9938 30.12 44.7738 29.416 44.7738 28.448V21.804H42.9698V20.352C43.5711 20.3373 44.0698 20.1467 44.4658 19.78C44.8764 19.4133 45.2064 18.966 45.4558 18.438C45.7051 17.8953 45.8811 17.3747 45.9838 16.876H47.8538ZM54.567 16.084C54.567 16.5387 54.4057 16.9347 54.083 17.272C53.7604 17.6093 53.3644 17.778 52.895 17.778C52.4404 17.778 52.0444 17.6093 51.707 17.272C51.3697 16.9347 51.201 16.5387 51.201 16.084C51.201 15.6147 51.3697 15.2187 51.707 14.896C52.0444 14.5733 52.4404 14.412 52.895 14.412C53.3644 14.412 53.7604 14.5733 54.083 14.896C54.4057 15.2187 54.567 15.6147 54.567 16.084ZM54.193 20.066V31H51.553V21.254L51.311 20.066H54.193ZM58.4385 20.066L60.4405 25.83C60.5579 26.138 60.6459 26.446 60.7045 26.754C60.7779 27.0473 60.8439 27.3553 60.9025 27.678C60.9612 27.37 61.0125 27.062 61.0565 26.754C61.1005 26.4313 61.1739 26.1233 61.2765 25.83L63.3225 20.066H65.6985L61.8265 31.088H59.4505L55.6005 20.066H58.4385ZM71.0995 19.758C72.1115 19.758 72.9402 19.978 73.5855 20.418C74.2455 20.858 74.7295 21.43 75.0375 22.134C75.3602 22.8233 75.5215 23.564 75.5215 24.356C75.5215 24.8693 75.4555 25.368 75.3235 25.852H68.6355C68.6355 27.0253 68.9142 27.9273 69.4715 28.558C70.0289 29.174 70.7549 29.482 71.6495 29.482C72.0749 29.482 72.5295 29.4087 73.0135 29.262C73.5122 29.1153 74.0255 28.888 74.5535 28.58L75.2575 30.076C74.7589 30.472 74.1282 30.7653 73.3655 30.956C72.6175 31.1467 71.9429 31.242 71.3415 31.242C70.1975 31.242 69.2149 31.0073 68.3935 30.538C67.5722 30.0687 66.9415 29.416 66.5015 28.58C66.0615 27.7293 65.8415 26.7393 65.8415 25.61C65.8415 24.5833 66.0469 23.63 66.4575 22.75C66.8829 21.8553 67.4842 21.1367 68.2615 20.594C69.0535 20.0367 69.9995 19.758 71.0995 19.758ZM70.9895 21.562C70.5055 21.562 70.0949 21.694 69.7575 21.958C69.4349 22.222 69.1855 22.552 69.0095 22.948C68.8335 23.344 68.7309 23.7327 68.7015 24.114H72.7715C72.8449 23.6887 72.8229 23.2853 72.7055 22.904C72.5882 22.508 72.3829 22.1853 72.0895 21.936C71.7962 21.6867 71.4295 21.562 70.9895 21.562ZM81.4206 19.78C81.934 19.78 82.484 19.8387 83.0706 19.956C83.672 20.0587 84.2 20.2273 84.6546 20.462L83.7306 22.31C83.0853 21.8113 82.3593 21.562 81.5526 21.562C81.186 21.562 80.8413 21.65 80.5186 21.826C80.2106 22.002 80.0566 22.3027 80.0566 22.728C80.0566 23.0947 80.1886 23.3807 80.4526 23.586C80.7313 23.7913 81.076 23.9747 81.4866 24.136C81.8386 24.268 82.2053 24.4147 82.5866 24.576C82.968 24.7373 83.3273 24.9353 83.6646 25.17C84.002 25.4047 84.2733 25.72 84.4786 26.116C84.684 26.4973 84.7866 26.9887 84.7866 27.59C84.7866 28.3673 84.5813 29.0347 84.1706 29.592C83.76 30.1493 83.2246 30.5747 82.5646 30.868C81.9193 31.1613 81.23 31.308 80.4966 31.308C79.91 31.308 79.2793 31.22 78.6046 31.044C77.9446 30.868 77.358 30.6407 76.8446 30.362L77.7906 28.558C78.172 28.778 78.568 28.9833 78.9786 29.174C79.3893 29.35 79.822 29.438 80.2766 29.438C80.7166 29.438 81.098 29.328 81.4206 29.108C81.758 28.8733 81.9266 28.514 81.9266 28.03C81.9266 27.5607 81.7433 27.2087 81.3766 26.974C81.0246 26.7393 80.592 26.5267 80.0786 26.336C79.624 26.16 79.1766 25.9693 78.7366 25.764C78.2966 25.544 77.93 25.236 77.6366 24.84C77.3433 24.444 77.1966 23.9013 77.1966 23.212C77.1966 22.4347 77.402 21.7967 77.8126 21.298C78.238 20.7847 78.7733 20.4033 79.4186 20.154C80.064 19.9047 80.7313 19.78 81.4206 19.78Z" fill="black"/>
<path d="M132.271 7.98438C132.67 7.98438 133.098 8.03125 133.555 8.125C134.023 8.20703 134.457 8.35352 134.855 8.56445C135.254 8.76367 135.582 9.03906 135.84 9.39062C136.098 9.73047 136.227 10.1582 136.227 10.6738C136.227 11.3066 136.039 11.8809 135.664 12.3965C135.301 12.9121 134.785 13.3574 134.117 13.7324C133.449 14.0957 132.646 14.3828 131.709 14.5938C130.783 14.793 129.758 14.8926 128.633 14.8926C127.367 14.8926 125.996 14.8047 124.52 14.6289C124.25 15.4727 124.045 16.416 123.904 17.459C123.775 18.502 123.705 19.6621 123.693 20.9395C124.139 20.9277 124.59 20.9219 125.047 20.9219C125.516 20.9102 125.996 20.9043 126.488 20.9043C127.145 20.9043 127.807 20.916 128.475 20.9395C129.143 20.9512 129.816 20.9688 130.496 20.9922C130.695 21.0039 130.848 21.0801 130.953 21.2207C131.07 21.3496 131.129 21.502 131.129 21.6777C131.129 21.8652 131.064 22.0176 130.936 22.1348C130.807 22.252 130.654 22.3105 130.479 22.3105C129.811 22.3105 129.143 22.2988 128.475 22.2754C127.818 22.252 127.168 22.2402 126.523 22.2402C126.031 22.2402 125.551 22.2461 125.082 22.2578C124.613 22.2578 124.15 22.2637 123.693 22.2754C123.693 22.4395 123.693 22.5977 123.693 22.75C123.705 22.9023 123.711 23.0605 123.711 23.2246C123.711 25.0527 123.436 26.6816 122.885 28.1113C122.334 29.5293 121.525 30.7246 120.459 31.6973C119.404 32.6699 118.104 33.4082 116.557 33.9121C115.01 34.416 113.234 34.668 111.23 34.668C109.754 34.668 108.441 34.5332 107.293 34.2637C106.156 34.0059 105.154 33.6602 104.287 33.2266C103.432 32.793 102.693 32.3066 102.072 31.7676C101.463 31.2168 100.953 30.666 100.543 30.1152C100.133 29.5527 99.8047 29.0137 99.5586 28.498C99.3125 27.9707 99.1309 27.5195 99.0137 27.1445C99.002 27.1094 98.9902 27.0801 98.9785 27.0566C98.9785 27.0215 98.9785 26.9863 98.9785 26.9512C98.9785 26.7754 99.043 26.623 99.1719 26.4941C99.3008 26.3535 99.4648 26.2832 99.6641 26.2832C99.8047 26.2832 99.9277 26.3242 100.033 26.4062C100.15 26.4883 100.232 26.5996 100.279 26.7402C100.385 27.0684 100.543 27.4609 100.754 27.918C100.965 28.375 101.252 28.8496 101.615 29.3418C101.99 29.8223 102.447 30.3027 102.986 30.7832C103.537 31.2637 104.199 31.6914 104.973 32.0664C105.758 32.4414 106.66 32.7461 107.68 32.9805C108.711 33.2148 109.895 33.332 111.23 33.332C114.91 33.332 117.688 32.4766 119.562 30.7656C121.449 29.0547 122.393 26.5293 122.393 23.1895C122.393 23.0488 122.387 22.9082 122.375 22.7676C122.375 22.6152 122.375 22.4688 122.375 22.3281C121.191 22.375 120.102 22.4336 119.105 22.5039C118.109 22.5625 117.236 22.627 116.486 22.6973C115.748 22.7559 115.15 22.8086 114.693 22.8555C114.236 22.8906 113.955 22.9082 113.85 22.9082C113.65 22.9082 113.475 22.8555 113.322 22.75C113.17 22.6328 113.094 22.4629 113.094 22.2402C113.094 22.0762 113.152 21.9355 113.27 21.8184C113.387 21.6895 113.527 21.6133 113.691 21.5898C113.703 21.5898 113.926 21.5664 114.359 21.5195C114.805 21.4727 115.414 21.4199 116.188 21.3613C116.961 21.291 117.875 21.2266 118.93 21.168C119.984 21.0977 121.133 21.0391 122.375 20.9922C122.398 18.4023 122.668 16.2227 123.184 14.4531C121.906 14.2656 120.605 14.043 119.281 13.7852C117.957 13.5156 116.639 13.2344 115.326 12.9414C114.014 12.6484 112.719 12.3613 111.441 12.0801C110.176 11.7871 108.957 11.5234 107.785 11.2891C106.613 11.0547 105.512 10.8672 104.48 10.7266C103.449 10.5859 102.512 10.5156 101.668 10.5156C100.484 10.5156 99.3828 10.6387 98.3633 10.8848C97.3438 11.1191 96.459 11.4648 95.709 11.9219C94.9707 12.3789 94.3848 12.9414 93.9512 13.6094C93.5293 14.2656 93.3184 15.0156 93.3184 15.8594C93.3184 16.4102 93.418 16.9082 93.6172 17.3535C93.8281 17.7871 94.0625 18.1621 94.3203 18.4785C94.5781 18.7832 94.8184 19.0234 95.041 19.1992C95.2637 19.3633 95.3867 19.4512 95.4102 19.4629C95.5156 19.5215 95.5918 19.6035 95.6387 19.709C95.6855 19.8145 95.709 19.9199 95.709 20.0254C95.709 20.2246 95.6387 20.3887 95.498 20.5176C95.3691 20.6348 95.2227 20.6934 95.0586 20.6934C94.9297 20.6934 94.8066 20.6523 94.6895 20.5703C94.4082 20.3828 94.1094 20.1367 93.793 19.832C93.4766 19.5273 93.1836 19.1816 92.9141 18.7949C92.6562 18.3965 92.4395 17.9512 92.2637 17.459C92.0879 16.9668 92 16.4336 92 15.8594C92 14.8047 92.2461 13.8672 92.7383 13.0469C93.2422 12.2266 93.9277 11.5293 94.7949 10.9551C95.6621 10.3809 96.6816 9.94727 97.8535 9.6543C99.0371 9.34961 100.314 9.19727 101.686 9.19727C102.494 9.19727 103.414 9.27344 104.445 9.42578C105.477 9.56641 106.584 9.75391 107.768 9.98828C108.963 10.2227 110.211 10.4863 111.512 10.7793C112.824 11.0723 114.16 11.3711 115.52 11.6758C116.879 11.9688 118.244 12.25 119.615 12.5195C120.986 12.7891 122.328 13.0176 123.641 13.2051C123.969 12.291 124.438 11.5059 125.047 10.8496C125.668 10.1816 126.371 9.63672 127.156 9.21484C127.941 8.79297 128.773 8.48242 129.652 8.2832C130.543 8.08398 131.416 7.98438 132.271 7.98438ZM134.891 10.6387C134.891 10.3574 134.797 10.1348 134.609 9.9707C134.434 9.79492 134.211 9.66016 133.941 9.56641C133.672 9.46094 133.385 9.39062 133.08 9.35547C132.787 9.32031 132.518 9.30273 132.271 9.30273C131.709 9.30273 131.082 9.36133 130.391 9.47852C129.711 9.5957 129.031 9.80664 128.352 10.1113C127.684 10.416 127.051 10.832 126.453 11.3594C125.867 11.8867 125.387 12.5605 125.012 13.3809C126.312 13.5215 127.514 13.5918 128.615 13.5918C129.518 13.5918 130.35 13.5215 131.111 13.3809C131.885 13.2285 132.547 13.0234 133.098 12.7656C133.66 12.5078 134.1 12.1973 134.416 11.834C134.732 11.4707 134.891 11.0723 134.891 10.6387ZM142.572 29.0957C142.525 29.1895 142.426 29.3887 142.273 29.6934C142.133 29.9863 141.945 30.3262 141.711 30.7129C141.488 31.0996 141.225 31.5039 140.92 31.9258C140.615 32.3477 140.275 32.7344 139.9 33.0859C139.525 33.4375 139.121 33.7305 138.688 33.9648C138.254 34.1875 137.797 34.2988 137.316 34.2988C136.637 34.2988 136.062 34.082 135.594 33.6484C135.137 33.2148 134.803 32.6699 134.592 32.0137C134.193 32.6816 133.719 33.2148 133.168 33.6133C132.617 34 132.066 34.1934 131.516 34.1934C131.082 34.1934 130.689 34.1172 130.338 33.9648C129.986 33.8008 129.688 33.5781 129.441 33.2969C129.195 33.0039 129.002 32.6641 128.861 32.2773C128.732 31.8906 128.668 31.4688 128.668 31.0117C128.668 30.0977 128.82 29.2949 129.125 28.6035C129.441 27.9004 129.84 27.3145 130.32 26.8457C130.801 26.377 131.328 26.0254 131.902 25.791C132.488 25.5566 133.051 25.4395 133.59 25.4395C133.953 25.4395 134.287 25.4922 134.592 25.5977C134.896 25.6914 135.154 25.7969 135.365 25.9141C135.588 26.0312 135.758 26.1426 135.875 26.248C135.992 26.3418 136.057 26.3945 136.068 26.4062C136.197 26.5586 136.262 26.7168 136.262 26.8809C136.262 27.0566 136.197 27.2148 136.068 27.3555C135.939 27.4844 135.787 27.5488 135.611 27.5488C135.424 27.5488 135.266 27.4844 135.137 27.3555C135.113 27.332 135.061 27.291 134.979 27.2324C134.896 27.1621 134.785 27.0918 134.645 27.0215C134.504 26.9512 134.334 26.8926 134.135 26.8457C133.947 26.7871 133.73 26.7578 133.484 26.7578C133.121 26.7578 132.734 26.8398 132.324 27.0039C131.914 27.168 131.539 27.4258 131.199 27.7773C130.859 28.1172 130.572 28.5508 130.338 29.0781C130.115 29.5938 130.004 30.209 130.004 30.9238C130.004 31.1465 130.027 31.375 130.074 31.6094C130.121 31.832 130.203 32.0371 130.32 32.2246C130.438 32.4121 130.596 32.5645 130.795 32.6816C130.994 32.7988 131.24 32.8574 131.533 32.8574C131.744 32.8574 131.984 32.7871 132.254 32.6465C132.535 32.5059 132.799 32.2891 133.045 31.9961C133.303 31.7031 133.531 31.334 133.73 30.8887C133.941 30.4434 134.088 29.916 134.17 29.3066C134.193 29.1426 134.27 29.0078 134.398 28.9023C134.527 28.7852 134.68 28.7266 134.855 28.7266C135.02 28.7266 135.16 28.791 135.277 28.9199C135.406 29.0488 135.477 29.1953 135.488 29.3594C135.5 29.582 135.523 29.8984 135.559 30.3086C135.594 30.707 135.67 31.1055 135.787 31.5039C135.916 31.9023 136.104 32.248 136.35 32.541C136.596 32.834 136.936 32.9805 137.369 32.9805C137.65 32.9805 137.926 32.9043 138.195 32.752C138.477 32.5996 138.746 32.4004 139.004 32.1543C139.273 31.8965 139.525 31.6094 139.76 31.293C140.006 30.9648 140.229 30.6367 140.428 30.3086C140.627 29.9805 140.803 29.6641 140.955 29.3594C141.107 29.0547 141.236 28.791 141.342 28.5684C141.4 28.4395 141.482 28.3398 141.588 28.2695C141.705 28.1992 141.828 28.1641 141.957 28.1641C142.156 28.1641 142.314 28.2402 142.432 28.3926C142.561 28.5332 142.625 28.6855 142.625 28.8496C142.625 28.9316 142.607 29.0137 142.572 29.0957ZM145.262 32.418C145.449 32.0312 145.666 31.6094 145.912 31.1523C146.158 30.6836 146.422 30.2148 146.703 29.7461C146.984 29.2656 147.277 28.791 147.582 28.3223C147.898 27.8535 148.227 27.4082 148.566 26.9863C148.906 26.5762 149.246 26.2832 149.586 26.1074C149.938 25.9199 150.266 25.8262 150.57 25.8262C151.18 25.8262 151.631 26.0488 151.924 26.4941C152.217 26.9395 152.363 27.4902 152.363 28.1465C152.363 28.2988 152.352 28.4863 152.328 28.709C152.316 28.9199 152.299 29.1484 152.275 29.3945C152.264 29.6406 152.246 29.8926 152.223 30.1504C152.211 30.3965 152.205 30.6309 152.205 30.8535C152.205 31.1348 152.217 31.4043 152.24 31.6621C152.275 31.9199 152.334 32.1484 152.416 32.3477C152.498 32.5352 152.615 32.6875 152.768 32.8047C152.92 32.9102 153.119 32.9629 153.365 32.9629C153.811 32.9629 154.244 32.793 154.666 32.4531C155.088 32.1016 155.475 31.6914 155.826 31.2227C156.189 30.7422 156.5 30.2559 156.758 29.7637C157.027 29.2715 157.227 28.873 157.355 28.5684C157.414 28.4395 157.496 28.3398 157.602 28.2695C157.719 28.1992 157.842 28.1641 157.971 28.1641C158.17 28.1641 158.328 28.2402 158.445 28.3926C158.574 28.5332 158.639 28.6855 158.639 28.8496C158.639 28.9316 158.621 29.0137 158.586 29.0957C158.539 29.1895 158.445 29.3828 158.305 29.6758C158.164 29.9688 157.977 30.3086 157.742 30.6953C157.52 31.0703 157.256 31.4746 156.951 31.9082C156.646 32.3301 156.307 32.7168 155.932 33.0684C155.568 33.4199 155.17 33.7129 154.736 33.9473C154.314 34.1816 153.869 34.2988 153.4 34.2988C152.873 34.2988 152.445 34.1992 152.117 34C151.789 33.7891 151.531 33.5195 151.344 33.1914C151.156 32.8516 151.027 32.4824 150.957 32.084C150.898 31.6738 150.869 31.2637 150.869 30.8535C150.869 30.6777 150.875 30.4785 150.887 30.2559C150.91 30.0332 150.934 29.7988 150.957 29.5527C150.992 29.3066 151.016 29.0605 151.027 28.8145C151.051 28.5684 151.062 28.334 151.062 28.1113C151.062 27.7363 151.004 27.4844 150.887 27.3555C150.77 27.2148 150.664 27.1445 150.57 27.1445C150.383 27.1445 150.166 27.2559 149.92 27.4785C149.686 27.6895 149.434 27.9707 149.164 28.3223C148.906 28.6738 148.637 29.0723 148.355 29.5176C148.086 29.9512 147.828 30.3848 147.582 30.8184C147.348 31.252 147.125 31.668 146.914 32.0664C146.715 32.4531 146.557 32.7754 146.439 33.0332C146.205 33.5254 145.971 33.8535 145.736 34.0176C145.502 34.1934 145.262 34.2812 145.016 34.2812C144.676 34.2812 144.4 34.1816 144.189 33.9824C143.99 33.7715 143.891 33.4785 143.891 33.1035C143.891 33.0215 143.902 32.8633 143.926 32.6289C143.949 32.3828 143.979 32.0957 144.014 31.7676C144.049 31.4277 144.084 31.0645 144.119 30.6777C144.154 30.291 144.189 29.9102 144.225 29.5352C144.26 29.1484 144.289 28.791 144.312 28.4629C144.336 28.1348 144.348 27.8594 144.348 27.6367C144.348 27.3438 144.336 27.0625 144.312 26.793C144.289 26.5234 144.242 26.3594 144.172 26.3008C144.066 26.3359 143.879 26.5586 143.609 26.9688C143.34 27.3672 142.994 28.0762 142.572 29.0957C142.514 29.2246 142.426 29.3242 142.309 29.3945C142.191 29.4648 142.068 29.5 141.939 29.5C141.74 29.5 141.582 29.4355 141.465 29.3066C141.348 29.166 141.289 29.0078 141.289 28.832C141.289 28.75 141.307 28.6621 141.342 28.5684C141.869 27.3145 142.361 26.3945 142.818 25.8086C143.287 25.2109 143.75 24.9121 144.207 24.9121C144.477 24.9121 144.705 24.9824 144.893 25.123C145.08 25.252 145.227 25.4277 145.332 25.6504C145.449 25.873 145.531 26.1191 145.578 26.3887C145.637 26.6582 145.666 26.9336 145.666 27.2148C145.666 27.4258 145.648 27.7539 145.613 28.1992C145.59 28.6445 145.555 29.125 145.508 29.6406C145.461 30.1445 145.414 30.6484 145.367 31.1523C145.332 31.6562 145.297 32.0781 145.262 32.418ZM159.342 27.4961C159.271 27.6836 159.184 27.8945 159.078 28.1289C158.984 28.3633 158.873 28.6094 158.744 28.8672C158.639 29.0664 158.527 29.2246 158.41 29.3418C158.305 29.4473 158.164 29.5 157.988 29.5C157.789 29.5 157.631 29.4414 157.514 29.3242C157.396 29.1953 157.338 29.0488 157.338 28.8848C157.338 28.8262 157.344 28.7793 157.355 28.7441C157.367 28.6973 157.396 28.627 157.443 28.5332C157.748 27.9473 157.971 27.4375 158.111 27.0039C158.264 26.5586 158.387 26.0957 158.48 25.6152C158.398 25.3457 158.34 25.1172 158.305 24.9297C158.27 24.7422 158.252 24.5488 158.252 24.3496C158.252 23.9629 158.334 23.6523 158.498 23.418C158.662 23.1719 158.891 23.0488 159.184 23.0488C159.453 23.0488 159.664 23.166 159.816 23.4004C159.98 23.6348 160.062 23.9219 160.062 24.2617C160.062 24.4492 160.045 24.6367 160.01 24.8242C159.975 25.0117 159.928 25.2461 159.869 25.5273C160.139 26.1953 160.408 26.7871 160.678 27.3027C160.947 27.8184 161.188 28.293 161.398 28.7266C161.609 29.1484 161.779 29.5469 161.908 29.9219C162.049 30.2969 162.119 30.6719 162.119 31.0469C162.119 31.5391 162.02 32.0078 161.82 32.4531C161.621 32.8984 161.293 33.2734 160.836 33.5781C160.895 33.5898 160.953 33.5957 161.012 33.5957C161.07 33.5957 161.129 33.5957 161.188 33.5957C161.855 33.5957 162.471 33.4434 163.033 33.1387C163.596 32.834 164.1 32.4414 164.545 31.9609C165.002 31.4688 165.406 30.9297 165.758 30.3438C166.109 29.7461 166.414 29.1543 166.672 28.5684C166.789 28.2988 166.953 28.1641 167.164 28.1641C167.363 28.1641 167.516 28.2344 167.621 28.375C167.738 28.5156 167.797 28.668 167.797 28.832C167.797 28.9258 167.779 29.0137 167.744 29.0957C167.615 29.4121 167.445 29.7754 167.234 30.1855C167.035 30.584 166.789 31 166.496 31.4336C166.215 31.8555 165.887 32.2715 165.512 32.6816C165.137 33.0918 164.715 33.4609 164.246 33.7891C163.789 34.1055 163.285 34.3574 162.734 34.5449C162.184 34.7441 161.58 34.8438 160.924 34.8438C160.139 34.8438 159.406 34.7031 158.727 34.4219C158.059 34.1523 157.514 33.7012 157.092 33.0684C157.021 32.9629 156.986 32.8516 156.986 32.7344C156.986 32.5586 157.051 32.4062 157.18 32.2773C157.32 32.1367 157.479 32.0664 157.654 32.0664C157.842 32.0664 158 32.1309 158.129 32.2598C158.141 32.2832 158.182 32.3242 158.252 32.3828C158.322 32.4297 158.404 32.4883 158.498 32.5586C158.604 32.6172 158.721 32.6699 158.85 32.7168C158.99 32.7637 159.131 32.7871 159.271 32.7871C159.553 32.7871 159.787 32.7285 159.975 32.6113C160.174 32.4941 160.332 32.3535 160.449 32.1895C160.566 32.0137 160.648 31.832 160.695 31.6445C160.754 31.4453 160.783 31.2754 160.783 31.1348C160.783 30.8418 160.736 30.5488 160.643 30.2559C160.549 29.9629 160.426 29.6699 160.273 29.377C160.133 29.084 159.975 28.7852 159.799 28.4805C159.635 28.1641 159.482 27.8359 159.342 27.4961Z" fill="black"/>
</svg>
